<?xml version="1.0" encoding="UTF-8" standalone="no"?>
<!DOCTYPE svg PUBLIC "-//W3C//DTD SVG 1.1//EN"
 "http://www.w3.org/Graphics/SVG/1.1/DTD/svg11.dtd">
<!-- Generated by graphviz version 2.40.1 (20161225.0304)
 -->
<!-- Title: %3 Pages: 1 -->
<svg width="453pt" height="514pt"
 viewBox="0.00 0.00 452.60 513.60" xmlns="http://www.w3.org/2000/svg" xmlns:xlink="http://www.w3.org/1999/xlink">
<g id="graph0" class="graph" transform="scale(1 1) rotate(0) translate(4 509.5999)">
<title>%3</title>
<polygon fill="#ffffff" stroke="transparent" points="-4,4 -4,-509.5999 448.6,-509.5999 448.6,4 -4,4"/>
<!-- read -->
<g id="node1" class="node">
<title>read</title>
<polygon fill="#aaffaa" stroke="#aaffaa" points="417.3001,-505.5999 258.6999,-505.5999 258.6999,-469.5999 417.3001,-469.5999 417.3001,-505.5999"/>
<text text-anchor="middle" x="338" y="-484.7999" font-family="Fira Code" font-size="14.00" fill="#000000">Read row from CSV</text>
</g>
<!-- discard -->
<g id="node2" class="node">
<title>discard</title>
<polygon fill="#aaffaa" stroke="#aaffaa" points="310,-432.5999 0,-432.5999 0,-396.5999 310,-396.5999 310,-432.5999"/>
<text text-anchor="middle" x="155" y="-411.7999" font-family="Fira Code" font-size="14.00" fill="#000000">Discard invalid or duplicate fields</text>
</g>
<!-- read&#45;&gt;discard -->
<g id="edge1" class="edge">
<title>read&#45;&gt;discard</title>
<path fill="none" stroke="#000000" d="M292.764,-469.555C267.6892,-459.5524 236.324,-447.0406 209.858,-436.4832"/>
<polygon fill="#000000" stroke="#000000" points="210.9349,-433.1446 200.3498,-432.6903 208.3413,-439.6464 210.9349,-433.1446"/>
</g>
<!-- error -->
<g id="node5" class="node">
<title>error</title>
<polygon fill="#ffaaaa" stroke="#ffaaaa" points="305.7002,-197.8 180.2998,-197.8 180.2998,-161.8 305.7002,-161.8 305.7002,-197.8"/>
<text text-anchor="middle" x="243" y="-176.9999" font-family="Fira Code" font-size="14.00" fill="#000000">Capture error</text>
</g>
<!-- read&#45;&gt;error -->
<g id="edge7" class="edge">
<title>read&#45;&gt;error</title>
<path fill="none" stroke="#000000" d="M338,-469.2996C338,-454.5348 338,-433.2301 338,-414.5999 338,-414.5999 338,-414.5999 338,-268.5999 338,-240.0478 314.8148,-218.0342 291.3523,-203.0671"/>
<polygon fill="#000000" stroke="#000000" points="293.109,-200.0394 282.7381,-197.8727 289.4943,-206.0339 293.109,-200.0394"/>
<text text-anchor="middle" x="371.6" y="-338.7999" font-family="Fira Code" font-size="14.00" fill="#000000">On error</text>
</g>
<!-- generate -->
<g id="node3" class="node">
<title>generate</title>
<polygon fill="#aaffaa" stroke="#aaffaa" points="297.3001,-359.5999 12.6999,-359.5999 12.6999,-323.5999 297.3001,-323.5999 297.3001,-359.5999"/>
<text text-anchor="middle" x="155" y="-338.7999" font-family="Fira Code" font-size="14.00" fill="#000000">Generate email message from data</text>
</g>
<!-- discard&#45;&gt;generate -->
<g id="edge2" class="edge">
<title>discard&#45;&gt;generate</title>
<path fill="none" stroke="#000000" d="M155,-396.555C155,-388.4828 155,-378.7763 155,-369.7817"/>
<polygon fill="#000000" stroke="#000000" points="158.5001,-369.6902 155,-359.6903 151.5001,-369.6903 158.5001,-369.6902"/>
</g>
<!-- send -->
<g id="node4" class="node">
<title>send</title>
<polygon fill="#aaffaa" stroke="#aaffaa" points="206.7001,-286.5999 39.2999,-286.5999 39.2999,-250.5999 206.7001,-250.5999 206.7001,-286.5999"/>
<text text-anchor="middle" x="123" y="-265.7999" font-family="Fira Code" font-size="14.00" fill="#000000">Send email message</text>
</g>
<!-- generate&#45;&gt;send -->
<g id="edge3" class="edge">
<title>generate&#45;&gt;send</title>
<path fill="none" stroke="#000000" d="M147.0899,-323.555C143.436,-315.2195 139.0182,-305.1415 134.969,-295.9041"/>
<polygon fill="#000000" stroke="#000000" points="138.1504,-294.4438 130.93,-286.6903 131.7393,-297.2542 138.1504,-294.4438"/>
</g>
<!-- generate&#45;&gt;error -->
<g id="edge8" class="edge">
<title>generate&#45;&gt;error</title>
<path fill="none" stroke="#000000" d="M181.4959,-323.4473C193.6765,-313.8228 207.3152,-301.0114 216,-286.5999 230.5722,-262.4188 237.3164,-230.6124 240.4151,-208.0157"/>
<polygon fill="#000000" stroke="#000000" points="243.8954,-208.3892 241.6296,-198.0395 236.9467,-207.5432 243.8954,-208.3892"/>
<text text-anchor="middle" x="265.6" y="-265.7999" font-family="Fira Code" font-size="14.00" fill="#000000">On error</text>
</g>
<!-- send&#45;&gt;error -->
<g id="edge9" class="edge">
<title>send&#45;&gt;error</title>
<path fill="none" stroke="#000000" d="M132.9429,-250.5626C139.8465,-239.3702 149.9204,-225.3514 161.8,-215.8 167.9685,-210.8403 174.9278,-206.4223 182.1126,-202.5281"/>
<polygon fill="#000000" stroke="#000000" points="183.9553,-205.5181 191.2916,-197.8742 180.7897,-199.2747 183.9553,-205.5181"/>
<text text-anchor="middle" x="195.6" y="-221.3999" font-family="Fira Code" font-size="14.00" fill="#000000">On error</text>
</g>
<!-- repeat -->
<g id="node6" class="node">
<title>repeat</title>
<polygon fill="#aaaaff" stroke="#aaaaff" points="335,-124.8 151,-124.8 151,-88.8 335,-88.8 335,-124.8"/>
<text text-anchor="middle" x="243" y="-103.9999" font-family="Fira Code" font-size="14.00" fill="#000000">Repeat for every row</text>
</g>
<!-- send&#45;&gt;repeat -->
<g id="edge4" class="edge">
<title>send&#45;&gt;repeat</title>
<path fill="none" stroke="#000000" d="M127.7883,-250.2463C134.4512,-227.477 148.3244,-188.4146 171,-161.8 180.7685,-150.3345 193.303,-139.7511 205.1676,-130.994"/>
<polygon fill="#000000" stroke="#000000" points="207.5289,-133.609 213.6393,-124.9538 203.4651,-127.9094 207.5289,-133.609"/>
</g>
<!-- error&#45;&gt;repeat -->
<g id="edge6" class="edge">
<title>error&#45;&gt;repeat</title>
<path fill="none" stroke="#000000" d="M243,-161.755C243,-153.6828 243,-143.9763 243,-134.9817"/>
<polygon fill="#000000" stroke="#000000" points="246.5001,-134.8903 243,-124.8903 239.5001,-134.8904 246.5001,-134.8903"/>
</g>
<!-- repeat&#45;&gt;read -->
<g id="edge5" class="edge">
<title>repeat&#45;&gt;read</title>
<path fill="none" stroke="#000000" d="M332.1586,-124.8169C381.5236,-137.4445 433,-156.2567 433,-179.8 433,-414.5999 433,-414.5999 433,-414.5999 433,-436.6959 416.6416,-453.024 397.501,-464.5664"/>
<polygon fill="#000000" stroke="#000000" points="395.5997,-461.6188 388.5596,-469.5364 399.0006,-467.7371 395.5997,-461.6188"/>
</g>
<!-- finish -->
<g id="node7" class="node">
<title>finish</title>
<polygon fill="#aaaaff" stroke="#aaaaff" points="431.7001,-36 54.2999,-36 54.2999,0 431.7001,0 431.7001,-36"/>
<text text-anchor="middle" x="243" y="-15.2" font-family="Fira Code" font-size="14.00" fill="#000000">Report successful sends and failure reasons</text>
</g>
<!-- repeat&#45;&gt;finish -->
<g id="edge10" class="edge">
<title>repeat&#45;&gt;finish</title>
<path fill="none" stroke="#000000" d="M243,-88.4005C243,-76.2949 243,-60.2076 243,-46.4673"/>
<polygon fill="#000000" stroke="#000000" points="246.5001,-46.072 243,-36.072 239.5001,-46.072 246.5001,-46.072"/>
<text text-anchor="middle" x="343.8" y="-59.6" font-family="Fira Code" font-size="14.00" fill="#000000">After all rows completed</text>
</g>
</g>
</svg>
