<?xml version="1.0" encoding="UTF-8" standalone="no"?>
<!DOCTYPE svg PUBLIC "-//W3C//DTD SVG 1.1//EN"
 "http://www.w3.org/Graphics/SVG/1.1/DTD/svg11.dtd">
<!-- Generated by graphviz version 2.40.1 (20161225.0304)
 -->
<!-- Title: %3 Pages: 1 -->
<svg width="484pt" height="425pt"
 viewBox="0.00 0.00 483.60 424.80" xmlns="http://www.w3.org/2000/svg" xmlns:xlink="http://www.w3.org/1999/xlink">
<g id="graph0" class="graph" transform="scale(1 1) rotate(0) translate(4 420.8)">
<title>%3</title>
<polygon fill="#ffffff" stroke="transparent" points="-4,4 -4,-420.8 479.6,-420.8 479.6,4 -4,4"/>
<!-- read -->
<g id="node1" class="node">
<title>read</title>
<polygon fill="#aaffaa" stroke="#aaffaa" points="325.3001,-416.8 166.6999,-416.8 166.6999,-380.8 325.3001,-380.8 325.3001,-416.8"/>
<text text-anchor="middle" x="246" y="-395.9999" font-family="Fira Code" font-size="14.00" fill="#000000">Read row from CSV</text>
</g>
<!-- discard -->
<g id="node2" class="node">
<title>discard</title>
<polygon fill="#aaffaa" stroke="#aaffaa" points="310,-343.8 0,-343.8 0,-307.8 310,-307.8 310,-343.8"/>
<text text-anchor="middle" x="155" y="-322.9999" font-family="Fira Code" font-size="14.00" fill="#000000">Discard invalid or duplicate fields</text>
</g>
<!-- read&#45;&gt;discard -->
<g id="edge1" class="edge">
<title>read&#45;&gt;discard</title>
<path fill="none" stroke="#000000" d="M223.5056,-380.755C212.0211,-371.5422 197.883,-360.2006 185.4389,-350.218"/>
<polygon fill="#000000" stroke="#000000" points="187.5414,-347.4176 177.551,-343.8903 183.1612,-352.8779 187.5414,-347.4176"/>
</g>
<!-- generate -->
<g id="node3" class="node">
<title>generate</title>
<polygon fill="#aaffaa" stroke="#aaffaa" points="307.3001,-270.8 22.6999,-270.8 22.6999,-234.8 307.3001,-234.8 307.3001,-270.8"/>
<text text-anchor="middle" x="165" y="-249.9999" font-family="Fira Code" font-size="14.00" fill="#000000">Generate email message from data</text>
</g>
<!-- discard&#45;&gt;generate -->
<g id="edge2" class="edge">
<title>discard&#45;&gt;generate</title>
<path fill="none" stroke="#000000" d="M157.4719,-307.755C158.5777,-299.6828 159.9073,-289.9763 161.1395,-280.9817"/>
<polygon fill="#000000" stroke="#000000" points="164.6322,-281.2728 162.5219,-270.8903 157.697,-280.3227 164.6322,-281.2728"/>
</g>
<!-- send -->
<g id="node4" class="node">
<title>send</title>
<polygon fill="#aaffaa" stroke="#aaffaa" points="293.7001,-197.8 126.2999,-197.8 126.2999,-161.8 293.7001,-161.8 293.7001,-197.8"/>
<text text-anchor="middle" x="210" y="-176.9999" font-family="Fira Code" font-size="14.00" fill="#000000">Send email message</text>
</g>
<!-- generate&#45;&gt;send -->
<g id="edge3" class="edge">
<title>generate&#45;&gt;send</title>
<path fill="none" stroke="#000000" d="M176.1236,-234.755C181.3701,-226.2441 187.7364,-215.9165 193.5276,-206.5219"/>
<polygon fill="#000000" stroke="#000000" points="196.5803,-208.2395 198.8484,-197.8903 190.6215,-204.5663 196.5803,-208.2395"/>
</g>
<!-- repeat -->
<g id="node5" class="node">
<title>repeat</title>
<polygon fill="#aaaaff" stroke="#aaaaff" points="366,-124.8 182,-124.8 182,-88.8 366,-88.8 366,-124.8"/>
<text text-anchor="middle" x="274" y="-103.9999" font-family="Fira Code" font-size="14.00" fill="#000000">Repeat for every row</text>
</g>
<!-- send&#45;&gt;repeat -->
<g id="edge4" class="edge">
<title>send&#45;&gt;repeat</title>
<path fill="none" stroke="#000000" d="M225.8202,-161.755C233.5126,-152.9809 242.8978,-142.2759 251.3344,-132.653"/>
<polygon fill="#000000" stroke="#000000" points="254.1794,-134.7171 258.14,-124.8903 248.9158,-130.1024 254.1794,-134.7171"/>
</g>
<!-- repeat&#45;&gt;read -->
<g id="edge5" class="edge">
<title>repeat&#45;&gt;read</title>
<path fill="none" stroke="#000000" d="M303.3776,-125.059C320.2021,-137.9899 338,-157.0463 338,-179.8 338,-325.8 338,-325.8 338,-325.8 338,-347.7251 321.7678,-364.111 302.9399,-375.7429"/>
<polygon fill="#000000" stroke="#000000" points="301.1063,-372.7594 294.1555,-380.7555 304.5756,-378.8392 301.1063,-372.7594"/>
</g>
<!-- finish -->
<g id="node6" class="node">
<title>finish</title>
<polygon fill="#aaaaff" stroke="#aaaaff" points="420.7001,-36 127.2999,-36 127.2999,0 420.7001,0 420.7001,-36"/>
<text text-anchor="middle" x="274" y="-15.2" font-family="Fira Code" font-size="14.00" fill="#000000">Report count of successful emails</text>
</g>
<!-- repeat&#45;&gt;finish -->
<g id="edge6" class="edge">
<title>repeat&#45;&gt;finish</title>
<path fill="none" stroke="#000000" d="M274,-88.4005C274,-76.2949 274,-60.2076 274,-46.4673"/>
<polygon fill="#000000" stroke="#000000" points="277.5001,-46.072 274,-36.072 270.5001,-46.072 277.5001,-46.072"/>
<text text-anchor="middle" x="374.8" y="-59.6" font-family="Fira Code" font-size="14.00" fill="#000000">After all rows completed</text>
</g>
</g>
</svg>
